PathFileType	4	(X/Y/Z)	Run_200 02
DataRate	CameraRate	NumFrames	NumMarkers	Units	OrigDataRate	OrigDataStartFrame	OrigNumFrames
100	100	7	42	mm	100	315	128
Frame#	Time	RASI			LPSI			RPSI			RTH1			RTH2			RTH3			LTH1			LTH2			LTH3			RTB1			RTB2			RTB3			LTB1			LTB2			LTB3			RCAL			RTOE			RMT5			LCAL			LTOE			LMT5			LACR			RACR			C7			RUA1			RUA2			RUA3			RLEL			RMEL			LUA2			LUA3			LLEL			LMEL			RFAsuperior			RFAradius			RFAulna			LFAsuperior			LFAradius			LFAulna			LUA1			CLAV			LASI		
		X1	Y1	Z1	X2	Y2	Z2	X3	Y3	Z3	X4	Y4	Z4	X5	Y5	Z5	X6	Y6	Z6	X7	Y7	Z7	X8	Y8	Z8	X9	Y9	Z9	X10	Y10	Z10	X11	Y11	Z11	X12	Y12	Z12	X13	Y13	Z13	X14	Y14	Z14	X15	Y15	Z15	X16	Y16	Z16	X17	Y17	Z17	X18	Y18	Z18	X19	Y19	Z19	X20	Y20	Z20	X21	Y21	Z21	X22	Y22	Z22	X23	Y23	Z23	X24	Y24	Z24	X25	Y25	Z25	X26	Y26	Z26	X27	Y27	Z27	X28	Y28	Z28	X29	Y29	Z29	X30	Y30	Z30	X31	Y31	Z31	X32	Y32	Z32	X33	Y33	Z33	X34	Y34	Z34	X35	Y35	Z35	X36	Y36	Z36	X37	Y37	Z37	X38	Y38	Z38	X39	Y39	Z39	X40	Y40	Z40	X41	Y41	Z41	X42	Y42	Z42	

315	  3.150000	1143.992213	1058.628403	-186.890945	983.289081	1099.252816	-364.572332	974.818771	1101.566169	-271.660653	1129.727695	889.657885	-124.091530	1193.172793	801.826094	-141.904915	1161.594269	659.592749	-159.578412	1050.441426	893.108330	-492.964065	1068.827298	754.413419	-460.206399	953.424185	667.641147	-452.439483	1241.728388	403.850105	-228.952962	1191.856768	300.448441	-192.500711	1218.208177	230.292998	-256.268151	871.276742	391.833698	-373.248590	809.917704	353.791441	-412.420305	794.078423	276.093534	-354.279241	1102.932269	117.691921	-267.065522	1338.682515	136.588231	-269.825827	1322.908799	103.589394	-197.072511	637.708324	228.496830	-330.315561	816.665138	 74.416081	-294.218023	779.613791	 62.236059	-378.096615	1165.835918	1594.515519	-465.178392	1124.212440	1568.349532	-137.635636	1072.105546	1600.462343	-314.287270	1019.458019	1490.960832	-62.594098	958.701885	1513.501451	-90.087534	934.379555	1451.862243	-52.981584	865.763565	1399.161355	-40.215624	845.448258	1406.521937	-133.155314	1065.038811	1427.762602	-568.315998	1113.930054	1358.650493	-588.234383	1105.257408	1287.568822	-602.246082	1041.169064	1275.663308	-534.903563	945.367352	1363.297194	-47.393965	1092.964493	1305.049393	-113.599218	1054.370081	1246.688987	-100.113225	1178.301110	1286.025836	-551.890606	1272.349460	1337.975669	-408.778023	1290.733923	1268.235379	-415.137199	1139.508852	1482.240388	-554.719068	1185.488136	1512.777889	-269.654485	1145.698219	1058.114712	-444.118467	
316	  3.160000	1145.064101	1059.477490	-187.055104	984.614216	1100.489126	-364.949535	976.007772	1102.518092	-272.110818	1129.683830	888.967233	-124.549659	1191.169641	799.360336	-142.648224	1155.914761	657.827149	-159.984067	1052.170961	894.519920	-493.553207	1069.130299	755.716647	-459.720798	953.169649	669.992195	-453.112252	1242.913887	403.540709	-230.948298	1198.414265	297.470713	-194.788183	1228.448728	229.202956	-258.888749	865.697293	395.197255	-374.192171	803.939255	358.516314	-414.157787	785.626226	281.155427	-356.056606	1119.549598	110.191918	-269.957738	1353.743812	143.258309	-274.026400	1340.592553	107.955302	-201.971025	629.319154	239.301179	-333.810328	800.673043	 75.915533	-295.608862	762.868602	 64.621420	-379.385959	1164.001323	1596.670555	-463.273013	1124.894317	1569.255602	-137.248786	1070.988717	1601.705101	-312.897163	1020.791798	1492.467915	-60.900690	959.987298	1514.927772	-88.207288	935.717789	1453.794325	-50.554337	866.875490	1400.658508	-37.647729	845.855123	1408.258917	-130.467138	1063.128844	1432.632296	-568.270653	1111.762494	1363.561050	-589.839434	1102.607813	1292.169320	-604.310564	1037.903731	1280.136623	-537.579957	946.813158	1365.471485	-45.918867	1094.083376	1308.129516	-113.909213	1056.235143	1249.518181	-99.434171	1175.081094	1289.751245	-553.304885	1268.224097	1339.566975	-408.470377	1285.968609	1269.689417	-415.535912	1137.782538	1486.499114	-554.581897	1184.574461	1514.051958	-269.122638	1146.377455	1058.263838	-444.231155	
317	  3.170000	1146.176560	1059.197050	-187.019086	985.628810	1101.074771	-365.469223	976.793492	1102.569876	-272.339898	1129.727228	887.366760	-125.286472	1189.539423	796.197100	-142.934378	1150.882288	655.336732	-160.656325	1054.081604	895.233317	-494.033897	1070.554328	756.326559	-459.323787	954.748692	670.806122	-453.955313	1243.435369	402.709128	-232.721395	1203.045111	294.862672	-196.919823	1236.225420	228.206201	-261.274991	861.814766	396.998981	-375.160217	799.517944	361.991519	-415.809896	778.232398	285.317723	-357.836066	1132.638232	104.081404	-272.776304	1365.027617	148.541655	-276.862591	1353.813753	111.576864	-205.441684	621.696251	249.788165	-337.581740	784.960193	 77.370794	-297.032356	746.685130	 67.312801	-380.784539	1161.963819	1597.824043	-461.882363	1125.567449	1569.002446	-136.681362	1070.112742	1601.999727	-311.485423	1022.284129	1492.447753	-59.097081	961.263834	1514.507109	-86.173295	937.301522	1453.826199	-47.969910	868.452478	1400.027437	-34.873848	846.700534	1407.756300	-127.547887	1060.481935	1436.246329	-567.980287	1108.733970	1367.198808	-591.359222	1098.931388	1295.520397	-606.203224	1033.701766	1283.482676	-539.818654	948.797222	1365.722769	-44.282682	1095.797472	1309.471949	-114.168422	1058.800971	1250.536826	-98.596893	1170.978410	1291.974370	-554.795577	1263.964044	1339.207234	-408.724880	1280.607228	1269.208804	-416.156407	1135.672605	1489.214764	-554.489488	1183.892007	1514.351948	-268.598214	1147.100207	1057.282731	-444.140595	
318	  3.180000	1147.306307	1057.859782	-186.925103	986.180474	1100.964879	-365.925960	977.114657	1101.741264	-272.317089	1129.788387	884.855549	-126.230015	1187.980742	792.441616	-142.768756	1146.648611	652.144777	-161.518006	1056.093011	895.189950	-494.377854	1073.042322	756.098176	-458.958750	958.079939	669.924105	-454.898132	1243.485311	401.277310	-234.408795	1205.879860	292.362845	-199.001328	1241.462821	226.976974	-263.583576	859.529409	397.275631	-376.257348	796.535258	364.353576	-417.483627	771.934679	288.616574	-359.755990	1141.716893	 99.060136	-275.570114	1372.561338	151.754612	-278.649821	1362.441863	113.925596	-207.535197	614.991124	259.950847	-341.769751	769.186548	 78.924394	-298.406938	731.149437	 70.164565	-382.238290	1159.855845	1597.992352	-461.180560	1126.219929	1567.633762	-135.821413	1069.517766	1601.366029	-310.039994	1023.906457	1490.807978	-57.268594	962.527602	1512.265142	-83.924695	939.094365	1451.944019	-45.219072	870.487401	1397.277016	-31.928790	847.999800	1405.065378	-124.463971	1057.157936	1438.498722	-567.463585	1104.835835	1369.518444	-592.819669	1094.225579	1297.570216	-607.869178	1028.722265	1285.719727	-541.590337	951.245251	1363.963381	-42.500474	1098.049537	1309.086710	-114.287888	1062.016575	1249.723914	-97.651350	1165.972529	1292.609008	-556.277031	1259.644837	1336.835372	-409.540288	1274.786565	1266.758395	-417.152452	1133.014091	1490.436752	-554.353927	1183.486790	1513.730736	-268.030187	1147.842729	1055.246019	-443.991396	
319	  3.190000	1148.343792	1055.639025	-186.826461	986.168518	1100.043019	-365.929910	977.277283	1100.028713	-272.129657	1129.779812	881.457683	-127.195329	1186.408043	788.143494	-142.262105	1143.575428	648.395708	-162.471285	1058.143051	894.317646	-494.607136	1076.425286	754.927498	-458.586793	962.939802	667.381787	-455.856287	1243.136216	399.138686	-236.277386	1207.129355	289.615605	-201.100655	1244.162626	225.111865	-265.895973	858.677139	396.200633	-377.442153	794.917405	365.792109	-419.291632	766.695992	291.173698	-361.833374	1146.548253	 95.200981	-278.392207	1376.447237	152.436357	-279.980469	1366.422607	114.657648	-208.688491	609.341842	269.788275	-346.471005	753.245148	 80.827794	-299.666530	716.272569	 73.010390	-383.652887	1157.806886	1596.933668	-460.913317	1126.895720	1565.200502	-134.630964	1069.221079	1599.806987	-308.554472	1025.643124	1487.512458	-55.461466	963.800175	1508.273755	-81.387280	941.111196	1448.166300	-42.311222	873.000725	1392.489089	-28.834181	849.786746	1400.281376	-121.242849	1053.219245	1439.361104	-566.726379	1100.052593	1370.478529	-594.153401	1088.507477	1298.309032	-609.260411	1023.100789	1286.857246	-542.831334	954.146378	1360.187777	-40.560994	1100.783905	1306.999085	-114.244738	1065.848785	1247.128481	-96.641250	1160.112589	1291.611191	-557.740364	1255.292294	1332.451569	-410.838407	1268.682878	1262.303348	-418.895558	1129.704481	1490.261966	-554.172735	1183.391179	1512.231861	-267.374235	1148.489203	1052.328758	-443.844392	
320	  3.200000	1149.128481	1052.767844	-186.656739	985.626179	1098.075243	-365.330497	977.704653	1097.313754	-271.950482	1129.648599	877.285661	-127.922135	1185.057426	783.374119	-141.574872	1141.999116	644.264902	-163.548042	1060.176337	892.517779	-494.793668	1080.441256	752.800122	-458.222785	968.996149	663.367395	-456.718326	1242.262501	396.096275	-238.531429	1206.901095	286.300737	-203.201930	1244.164336	222.191783	-268.192671	859.070148	394.024643	-378.622783	794.597212	366.437354	-421.263295	762.456126	293.158182	-364.035908	1146.819313	 92.953927	-281.081643	1376.526426	149.858572	-281.497734	1365.519948	113.007821	-209.646220	604.860568	279.286106	-351.625122	737.520401	 83.234628	-300.875486	702.014765	 75.822667	-385.018465	1155.897958	1594.397761	-460.620111	1127.640418	1561.772228	-133.172988	1069.183615	1597.300353	-307.018996	1027.517913	1482.631837	-53.580749	965.126556	1502.627148	-78.526470	943.402764	1442.526033	-39.286655	876.026702	1385.762696	-25.596352	852.056226	1393.521677	-117.873414	1048.726869	1438.864882	-565.744295	1094.401191	1370.047350	-595.229901	1081.814855	1297.769195	-610.322857	1016.881848	1286.902517	-543.438259	957.547913	1354.475824	-38.424231	1103.973492	1303.222878	-114.062424	1070.271214	1242.827140	-95.586868	1153.527951	1288.979832	-559.280038	1250.889259	1326.103636	-412.544893	1262.411582	1255.832819	-421.632062	1125.768498	1488.759022	-554.000946	1183.570976	1509.820611	-266.634053	1148.874146	1048.761704	-443.634817	
321	  3.210000	1149.569744	1049.396179	-186.392379	984.730026	1094.861284	-364.456865	978.313810	1093.455738	-271.771020	1129.444488	872.559717	-128.277098	1184.321155	778.375204	-140.959121	1141.959033	639.854600	-164.916464	1062.125216	889.691050	-495.009488	1084.788510	749.786477	-457.944029	975.853074	658.110780	-457.406735	1240.565985	391.870943	-241.163965	1204.969534	282.208333	-205.244522	1241.053530	217.888581	-270.430216	860.532632	391.019961	-379.856253	795.457571	366.364878	-423.386565	759.196023	294.759092	-366.388912	1142.088750	 92.542358	-283.286784	1372.374756	143.015119	-283.529865	1359.519111	107.594533	-211.071939	601.563273	288.430374	-356.944634	722.809771	 86.161051	-302.318883	688.454006	 78.887275	-386.545402	1154.143961	1590.390077	-460.082683	1128.463214	1557.371276	-131.608433	1069.304198	1593.814608	-305.409451	1029.587312	1476.293347	-51.490691	966.565528	1495.412667	-75.360139	946.028405	1435.062207	-36.202720	879.602569	1377.201255	-22.216700	854.745011	1384.907586	-114.320928	1043.724713	1437.091493	-564.450505	1087.940510	1368.233236	-595.917188	1074.202143	1296.018347	-610.985653	1010.066875	1285.872564	-543.316119	961.501398	1346.954600	-36.069949	1107.614816	1297.767387	-113.782309	1075.227676	1236.891101	-94.480534	1146.333138	1284.783228	-560.973308	1246.414999	1317.849855	-414.654169	1255.964784	1247.396987	-425.257024	1121.309500	1485.978018	-553.854897	1183.896976	1506.358336	-265.886977	1148.915384	1044.688523	-443.323930	
